ply
format ascii 1.0
element vertex 42
property float x
property float y
property float z
property uchar diffuse_red
property uchar diffuse_green
property uchar diffuse_blue
end_header
-0.243238 0.0197812 -0.316966 0 255 0
-0.367858 1.0918 -0.397531 255 0 255
-0.255511 0.441185 -0.299697 0 255 0
-0.313254 -0.496863 -0.384065 255 0 255
-0.140866 0.103369 -0.398181 0 255 0
-0.482597 0.0917147 -0.238459 255 0 255
-0.388535 -0.846255 -0.458946 255 0 255
3.62006 -0.661729 -2.78959 0 255 0
3.6254 -0.918409 -2.86109 255 0 255
3.64897 -0.122948 -2.68022 0 255 0
3.39789 0.0237549 -2.64229 255 0 255
3.65743 0.2127 -2.67024 255 0 255
3.65219 0.653579 -2.6665 255 0 255
3.8407 3.91693e-10 -2.82611 0 255 0
3.6448 1.11082 -2.70812 255 0 255
8.98256 -0.326225 -2.94721 0 255 0
9.00512 -0.679566 -2.9948 0 255 0
9.07947 -0.91789 -3.23422 255 0 255
9.02074 0.0221161 -2.95713 255 0 255
9.06388 0.629923 -2.93749 255 0 255
9.07455 0.981748 -2.9823 255 0 255
12.9407 -0.561658 -2.18113 0 255 0
12.9456 -0.834581 -2.23294 255 0 255
12.867 0.434725 -2.13 255 0 255
12.8763 -0.0972115 -2.11806 255 0 255
12.8399 0.951629 -2.12796 255 0 255
12.8029 2.6282 -1.9961 0 255 0
8.90872 2.7297 -2.8025 0 255 0
-3.9815 -0.0101233 7.02955 255 0 255
-3.98793 0.396119 7.06923 0 255 0
-4.00728 0.953146 7.07629 255 0 255
-4.08973 -0.856403 7.01078 255 0 255
-4.11369 -1.44012e-07 7.13209 255 0 255
-3.98498 0.0286751 6.88447 255 0 255
20.9993 1.23796e-08 0.935917 0 255 0
20.8796 -0.0323587 0.863038 0 255 0
21.0205 -0.977672 0.664413 255 0 255
20.9284 -0.393745 0.807402 255 0 255
20.9888 -0.731708 0.730222 255 0 255
20.8879 0.694403 0.850825 255 0 255
20.7828 0.0113325 0.633328 0 255 0
23.1917 0.0210877 7.85393 255 0 255
